<svg xmlns="http://www.w3.org/2000/svg" viewBox="0 0 64 64">
  <defs>
    <linearGradient id="g" x1="7" y1="52" x2="57" y2="12" gradientUnits="userSpaceOnUse">
      <stop stop-color="#00d4ff"/>
      <stop offset=".55" stop-color="#2563eb"/>
      <stop offset="1" stop-color="#7c3aed"/>
    </linearGradient>
  </defs>
  <rect width="64" height="64" rx="14" fill="#07111f"/>
  <path fill="url(#g)" d="M12 22c9-10 21-9 30-1 5 5 7 5 10 1-3 14-15 19-27 11-5-4-8-4-13 0 3-7 10-10 18-6 5 2 8 2 11-1-8-5-16-4-29 7z"/>
  <path fill="#7dd3fc" d="M16 43c10-7 18-7 28-1 3 2 5 1 7-1-4 9-13 11-23 5-4-2-7-2-12 1z"/>
</svg>
